<svg xmlns="http://www.w3.org/2000/svg" width="1600" height="1100" viewBox="0 0 1600 1100" fill="none">
  <defs>
    <linearGradient id="bg" x1="0" y1="0" x2="1" y2="1">
      <stop offset="0%" stop-color="#F4F7FB"/>
      <stop offset="100%" stop-color="#E8EEF5"/>
    </linearGradient>
    <linearGradient id="stage" x1="0" y1="0" x2="1" y2="0">
      <stop offset="0%" stop-color="#004489"/>
      <stop offset="100%" stop-color="#BA1C1C"/>
    </linearGradient>
    <filter id="shadow" x="-20%" y="-20%" width="140%" height="140%">
      <feDropShadow dx="0" dy="14" stdDeviation="20" flood-color="#0F172A" flood-opacity="0.12"/>
    </filter>
  </defs>

  <rect width="1600" height="1100" fill="url(#bg)"/>

  <g filter="url(#shadow)">
    <rect x="70" y="70" width="1460" height="960" rx="30" fill="#FFFFFF"/>
  </g>

  <text x="120" y="145" fill="#152234" font-family="Segoe UI, Arial, sans-serif" font-size="28" font-weight="700">
    Mockup Seat Map
  </text>
  <text x="120" y="180" fill="#5A6472" font-family="Segoe UI, Arial, sans-serif" font-size="18">
    Vista conceptual del flujo de seleccion por secciones, zoom y resumen de compra
  </text>

  <g>
    <rect x="120" y="230" width="980" height="730" rx="24" fill="#F8FAFC" stroke="#D9E2EC"/>
    <rect x="380" y="275" width="460" height="78" rx="39" fill="url(#stage)"/>
    <text x="610" y="323" fill="#FFFFFF" font-family="Segoe UI, Arial, sans-serif" font-size="28" font-weight="700" text-anchor="middle">
      MAIN STAGE
    </text>

    <polygon points="500,400 700,400 740,590 460,590" fill="#004489" fill-opacity="0.14" stroke="#004489" stroke-opacity="0.22" stroke-width="3"/>
    <text x="600" y="435" fill="#004489" font-family="Segoe UI, Arial, sans-serif" font-size="22" font-weight="700" text-anchor="middle">VIP CENTER</text>

    <polygon points="245,470 415,430 450,635 210,680" fill="#1D4ED8" fill-opacity="0.12" stroke="#1D4ED8" stroke-opacity="0.18" stroke-width="3"/>
    <text x="330" y="505" fill="#1D4ED8" font-family="Segoe UI, Arial, sans-serif" font-size="20" font-weight="700" text-anchor="middle">PREMIUM L</text>

    <polygon points="785,430 955,470 990,680 750,635" fill="#1D4ED8" fill-opacity="0.12" stroke="#1D4ED8" stroke-opacity="0.18" stroke-width="3"/>
    <text x="870" y="505" fill="#1D4ED8" font-family="Segoe UI, Arial, sans-serif" font-size="20" font-weight="700" text-anchor="middle">PREMIUM R</text>

    <polygon points="180,720 460,655 505,880 145,930" fill="#BA1C1C" fill-opacity="0.10" stroke="#BA1C1C" stroke-opacity="0.18" stroke-width="3"/>
    <text x="330" y="750" fill="#BA1C1C" font-family="Segoe UI, Arial, sans-serif" font-size="20" font-weight="700" text-anchor="middle">GENERAL L</text>

    <polygon points="520,650 700,620 880,650 920,910 480,910" fill="#BA1C1C" fill-opacity="0.10" stroke="#BA1C1C" stroke-opacity="0.18" stroke-width="3"/>
    <text x="700" y="690" fill="#BA1C1C" font-family="Segoe UI, Arial, sans-serif" font-size="20" font-weight="700" text-anchor="middle">GENERAL CENTER</text>

    <polygon points="940,655 1220,720 1255,930 895,880" fill="#BA1C1C" fill-opacity="0.10" stroke="#BA1C1C" stroke-opacity="0.18" stroke-width="3"/>
    <text x="1090" y="750" fill="#BA1C1C" font-family="Segoe UI, Arial, sans-serif" font-size="20" font-weight="700" text-anchor="middle">GENERAL R</text>

    <g fill="#004489">
      <circle cx="545" cy="470" r="11"/><circle cx="575" cy="470" r="11"/><circle cx="605" cy="470" r="11"/><circle cx="635" cy="470" r="11"/><circle cx="665" cy="470" r="11"/><circle cx="695" cy="470" r="11"/>
      <circle cx="530" cy="505" r="11"/><circle cx="560" cy="505" r="11"/><circle cx="590" cy="505" r="11"/><circle cx="620" cy="505" r="11"/><circle cx="650" cy="505" r="11"/><circle cx="680" cy="505" r="11"/><circle cx="710" cy="505" r="11"/>
      <circle cx="520" cy="540" r="11"/><circle cx="550" cy="540" r="11"/><circle cx="580" cy="540" r="11"/><circle cx="610" cy="540" r="11"/><circle cx="640" cy="540" r="11"/><circle cx="670" cy="540" r="11"/><circle cx="700" cy="540" r="11"/>
    </g>

    <g fill="#1D4ED8">
      <circle cx="280" cy="540" r="10"/><circle cx="308" cy="532" r="10"/><circle cx="336" cy="525" r="10"/><circle cx="364" cy="517" r="10"/><circle cx="392" cy="510" r="10"/>
      <circle cx="300" cy="575" r="10"/><circle cx="328" cy="567" r="10"/><circle cx="356" cy="560" r="10"/><circle cx="384" cy="552" r="10"/><circle cx="412" cy="545" r="10"/>
      <circle cx="840" cy="510" r="10"/><circle cx="868" cy="517" r="10"/><circle cx="896" cy="525" r="10"/><circle cx="924" cy="532" r="10"/><circle cx="952" cy="540" r="10"/>
      <circle cx="820" cy="545" r="10"/><circle cx="848" cy="552" r="10"/><circle cx="876" cy="560" r="10"/><circle cx="904" cy="567" r="10"/><circle cx="932" cy="575" r="10"/>
    </g>

    <g fill="#BA1C1C">
      <circle cx="245" cy="790" r="10"/><circle cx="273" cy="784" r="10"/><circle cx="301" cy="778" r="10"/><circle cx="329" cy="772" r="10"/><circle cx="357" cy="766" r="10"/><circle cx="385" cy="760" r="10"/>
      <circle cx="570" cy="760" r="10"/><circle cx="598" cy="756" r="10"/><circle cx="626" cy="752" r="10"/><circle cx="654" cy="749" r="10"/><circle cx="682" cy="747" r="10"/><circle cx="710" cy="746" r="10"/><circle cx="738" cy="747" r="10"/><circle cx="766" cy="749" r="10"/><circle cx="794" cy="752" r="10"/><circle cx="822" cy="756" r="10"/>
      <circle cx="1015" cy="760" r="10"/><circle cx="1043" cy="766" r="10"/><circle cx="1071" cy="772" r="10"/><circle cx="1099" cy="778" r="10"/><circle cx="1127" cy="784" r="10"/><circle cx="1155" cy="790" r="10"/>
    </g>

    <g>
      <circle cx="608" cy="505" r="12" fill="#BA1C1C" stroke="#7F1D1D" stroke-width="3"/>
      <circle cx="638" cy="505" r="12" fill="#BA1C1C" stroke="#7F1D1D" stroke-width="3"/>
      <circle cx="329" cy="772" r="11" fill="#94A3B8"/>
      <circle cx="904" cy="567" r="11" fill="#F59E0B"/>
    </g>

    <g transform="translate(860 300)">
      <rect width="180" height="78" rx="16" fill="#FFFFFF" stroke="#D9E2EC"/>
      <text x="20" y="30" fill="#152234" font-family="Segoe UI, Arial, sans-serif" font-size="17" font-weight="700">Controles</text>
      <text x="20" y="54" fill="#5A6472" font-family="Segoe UI, Arial, sans-serif" font-size="15">Zoom + / -, pan y foco</text>
    </g>
  </g>

  <g filter="url(#shadow)">
    <rect x="1140" y="230" width="340" height="730" rx="24" fill="#FFFFFF"/>
  </g>

  <text x="1180" y="285" fill="#5A6472" font-family="Segoe UI, Arial, sans-serif" font-size="14" font-weight="700" letter-spacing="2">PURCHASE SUMMARY</text>
  <text x="1180" y="330" fill="#152234" font-family="Segoe UI, Arial, sans-serif" font-size="30" font-weight="700">Seleccion de asientos</text>

  <g>
    <rect x="1180" y="370" width="260" height="72" rx="14" fill="#F8FAFC"/>
    <text x="1200" y="400" fill="#152234" font-family="Segoe UI, Arial, sans-serif" font-size="17" font-weight="700">VIP Center</text>
    <text x="1200" y="425" fill="#5A6472" font-family="Segoe UI, Arial, sans-serif" font-size="14">2 seleccionados</text>
    <text x="1200" y="448" fill="#5A6472" font-family="Segoe UI, Arial, sans-serif" font-size="14">Desde Q560</text>

    <rect x="1180" y="458" width="260" height="72" rx="14" fill="#F8FAFC"/>
    <text x="1200" y="488" fill="#152234" font-family="Segoe UI, Arial, sans-serif" font-size="17" font-weight="700">Premium</text>
    <text x="1200" y="513" fill="#5A6472" font-family="Segoe UI, Arial, sans-serif" font-size="14">0 seleccionados</text>
    <text x="1200" y="536" fill="#5A6472" font-family="Segoe UI, Arial, sans-serif" font-size="14">Desde Q440</text>
  </g>

  <line x1="1180" y1="570" x2="1440" y2="570" stroke="#D9E2EC"/>

  <text x="1180" y="620" fill="#152234" font-family="Segoe UI, Arial, sans-serif" font-size="17" font-weight="700">VB4 · VIP Center</text>
  <text x="1420" y="620" fill="#152234" font-family="Segoe UI, Arial, sans-serif" font-size="17" font-weight="700" text-anchor="end">Q560</text>

  <text x="1180" y="660" fill="#152234" font-family="Segoe UI, Arial, sans-serif" font-size="17" font-weight="700">VB5 · VIP Center</text>
  <text x="1420" y="660" fill="#152234" font-family="Segoe UI, Arial, sans-serif" font-size="17" font-weight="700" text-anchor="end">Q560</text>

  <line x1="1180" y1="700" x2="1440" y2="700" stroke="#D9E2EC"/>

  <text x="1180" y="748" fill="#5A6472" font-family="Segoe UI, Arial, sans-serif" font-size="16">Subtotal</text>
  <text x="1420" y="748" fill="#152234" font-family="Segoe UI, Arial, sans-serif" font-size="16" font-weight="700" text-anchor="end">Q1,120</text>

  <text x="1180" y="786" fill="#5A6472" font-family="Segoe UI, Arial, sans-serif" font-size="16">Service fee</text>
  <text x="1420" y="786" fill="#152234" font-family="Segoe UI, Arial, sans-serif" font-size="16" font-weight="700" text-anchor="end">Q101</text>

  <text x="1180" y="824" fill="#5A6472" font-family="Segoe UI, Arial, sans-serif" font-size="16">Impuestos</text>
  <text x="1420" y="824" fill="#152234" font-family="Segoe UI, Arial, sans-serif" font-size="16" font-weight="700" text-anchor="end">Q56</text>

  <line x1="1180" y1="850" x2="1440" y2="850" stroke="#D9E2EC"/>

  <text x="1180" y="900" fill="#152234" font-family="Segoe UI, Arial, sans-serif" font-size="22" font-weight="700">Total estimado</text>
  <text x="1420" y="900" fill="#152234" font-family="Segoe UI, Arial, sans-serif" font-size="22" font-weight="700" text-anchor="end">Q1,277</text>

  <rect x="1180" y="925" width="260" height="56" rx="14" fill="#004489"/>
  <text x="1310" y="960" fill="#FFFFFF" font-family="Segoe UI, Arial, sans-serif" font-size="18" font-weight="700" text-anchor="middle">
    Ir al carrito
  </text>

  <g transform="translate(120 980)">
    <circle cx="0" cy="0" r="8" fill="#004489"/><text x="18" y="6" fill="#5A6472" font-family="Segoe UI, Arial, sans-serif" font-size="15">Disponible</text>
    <circle cx="150" cy="0" r="8" fill="#F59E0B"/><text x="168" y="6" fill="#5A6472" font-family="Segoe UI, Arial, sans-serif" font-size="15">Reservado</text>
    <circle cx="310" cy="0" r="8" fill="#94A3B8"/><text x="328" y="6" fill="#5A6472" font-family="Segoe UI, Arial, sans-serif" font-size="15">Vendido</text>
    <circle cx="450" cy="0" r="8" fill="#BA1C1C"/><text x="468" y="6" fill="#5A6472" font-family="Segoe UI, Arial, sans-serif" font-size="15">Seleccionado</text>
  </g>
</svg>
